<?xml version="1.0" encoding="UTF-8" standalone="no"?>
<!-- Created with Inkscape (http://www.inkscape.org/) -->

<svg
   width="325mm"
   height="100mm"
   viewBox="0 0 325 100"
   version="1.1"
   id="svg5"
   xml:space="preserve"
   inkscape:version="1.2.1 (9c6d41e410, 2022-07-14)"
   sodipodi:docname="logo_levariste.svg"
   xmlns:inkscape="http://www.inkscape.org/namespaces/inkscape"
   xmlns:sodipodi="http://sodipodi.sourceforge.net/DTD/sodipodi-0.dtd"
   xmlns="http://www.w3.org/2000/svg"
   xmlns:svg="http://www.w3.org/2000/svg"><sodipodi:namedview
     id="namedview7"
     pagecolor="#ffffff"
     bordercolor="#666666"
     borderopacity="1.0"
     inkscape:showpageshadow="2"
     inkscape:pageopacity="0.0"
     inkscape:pagecheckerboard="0"
     inkscape:deskcolor="#d1d1d1"
     inkscape:document-units="mm"
     showgrid="false"
     inkscape:zoom="0.84096521"
     inkscape:cx="513.10089"
     inkscape:cy="261.60416"
     inkscape:window-width="1920"
     inkscape:window-height="1001"
     inkscape:window-x="2153"
     inkscape:window-y="-7"
     inkscape:window-maximized="1"
     inkscape:current-layer="layer1" /><defs
     id="defs2" /><g
     inkscape:label="Layer 1"
     inkscape:groupmode="layer"
     id="layer1"
     transform="translate(116.005,-32.401978)"><path
       style="fill:#000000;stroke-width:0.20202"
       d="m -69.439229,111.80048 c -0.330525,0.18403 -2.013586,-1.4148 -13.250669,-12.5875 -7.079628,-7.039074 -12.886521,-12.925994 -12.904211,-13.082044 -0.0177,-0.15606 0.695112,-0.95939 1.584001,-1.78518 0.888889,-0.8258 1.616162,-1.63958 1.616162,-1.8084 0,-0.16883 -0.727273,-1.01495 -1.616162,-1.88026 -0.888889,-0.86532 -1.616161,-1.65198 -1.616161,-1.74813 0,-0.0962 5.815171,-5.9876 12.922604,-13.0921 7.107432,-7.104488 12.965485,-12.876368 13.017893,-12.826393 0.05241,0.04997 5.92278,5.903505 13.045269,13.007843 l 12.94998,12.91698 -1.771742,1.77999 -1.771741,1.77999 1.810749,1.81918 1.81075,1.81918 -12.724053,12.738014 c -6.998228,7.00591 -12.89443,12.83288 -13.102669,12.94883 z m -0.41438,-1.68151 c 0.119408,0.0182 5.664863,-5.3719 12.323233,-11.97799 l 12.106128,-12.011064 -1.34499,-1.29858 -1.344988,-1.29859 -10.670825,10.68339 c -5.868951,5.875864 -10.763707,10.682824 -10.877232,10.682144 -0.113526,-6.1e-4 -5.024592,-4.7704 -10.913481,-10.599384 -5.888889,-5.82898 -10.775253,-10.60115 -10.858586,-10.60483 -0.08333,-0.004 -0.691679,0.53349 -1.351878,1.19369 l -1.200363,1.20037 11.95794,11.998884 c 6.576865,6.59939 12.055634,12.01377 12.175042,12.03196 z m 0.08593,-7.25058 c 0.166666,0.007 5.691497,-5.41574 12.2774,-12.050694 l 11.97437,-12.06355 -12.051497,-11.92732 C -64.19573,60.266809 -69.675203,54.876758 -69.744013,54.84894 c -0.06881,-0.02782 -5.511965,5.334046 -12.095903,11.915256 -6.583937,6.5812 -11.947476,12.03435 -11.918976,12.11809 0.0285,0.0837 5.37,5.51199 11.87,12.06275 6.5,6.550774 11.954546,11.916274 12.121213,11.923354 z m -0.0017,-5.84766 c -0.166673,0 -4.325384,-4.023104 -9.241582,-8.940234 -4.9162,-4.91713 -8.938544,-9.03592 -8.938544,-9.15288 0,-0.11695 4.047202,-4.25293 8.993784,-9.19107 4.946582,-4.93814 9.094673,-9.012655 9.217982,-9.054471 0.123311,-0.04181 4.255372,3.958181 9.18236,8.888891 4.926988,4.9307 8.960713,9.10166 8.963834,9.2688 0.0031,0.16713 -4.01743,4.32622 -8.934559,9.24242 -4.91713,4.9162 -9.076605,8.938544 -9.243275,8.938544 z m -0.854188,-8.957304 0.05321,-6.88898 -1.132327,-1.04545 c -0.949279,-0.87644 -1.09919,-1.10604 -0.927338,-1.42029 0.112746,-0.20616 0.621075,-0.78014 1.129624,-1.27549 l 0.924633,-0.90065 v -6.7758 -6.775798 l -7.926707,7.926708 -7.926706,7.92671 7.456605,7.46356 c 4.101131,4.10496 7.54841,7.62761 7.660616,7.82811 0.112206,0.20051 0.301026,0.46846 0.419598,0.59545 0.153135,0.16402 0.230996,-1.76463 0.268794,-6.65808 z m 9.261293,-0.95531 c 4.321467,-4.32925 7.886107,-8.00374 7.921422,-8.16553 0.03671,-0.16818 -3.26318,-3.60621 -7.704669,-8.0272 l -7.768878,-7.73304 -0.123613,3.61824 c -0.06799,1.99004 -0.123614,4.95 -0.123614,6.5777 v 2.95945 l 1.23373,1.22991 c 0.962848,0.95988 1.193097,1.30252 1.048666,1.56061 -0.101786,0.18188 -0.610778,0.76953 -1.131095,1.3059 l -0.94603,0.97521 -0.131568,6.78506 -0.131567,6.785054 z m -8.458742,-7.05708 c 0.151101,0 0.49477,-0.25 0.763705,-0.55556 0.268938,-0.30555 0.491851,-0.6281 0.495362,-0.71676 0.0035,-0.0887 -0.243616,-0.38125 -0.549172,-0.65018 -0.305555,-0.26894 -0.63365,-0.49185 -0.729101,-0.49536 -0.09545,-0.004 -0.389335,0.19816 -0.653076,0.44816 -0.263742,0.25 -0.481099,0.52641 -0.483019,0.61424 -0.002,0.0878 0.195425,0.42874 0.438542,0.75758 0.243117,0.32883 0.56566,0.59788 0.716759,0.59788 z M 88.505405,95.8167 c -0.225134,0.18684 -0.311267,0.17897 -0.392125,-0.0358 -0.05699,-0.1514 -0.126249,-6.002554 -0.153908,-13.002554 l -0.05028,-12.72727 -1.060606,-0.0611 c -0.880445,-0.0507 -1.060607,-0.12538 -1.060607,-0.43966 0,-0.36227 0.228639,-0.37558 5.303031,-0.30876 2.916667,0.0384 5.576586,0.15545 5.91095,0.26009 0.334363,0.10464 1.08101,0.42998 1.659212,0.72298 0.578202,0.293 1.370968,0.81342 1.761718,1.15649 0.39073,0.34307 1.02216,1.1387 1.40314,1.76805 0.38101,0.62936 0.84837,1.68253 1.03857,2.34038 0.24004,0.83021 0.31753,1.63694 0.25333,2.63731 -0.0619,0.96487 -0.26588,1.81993 -0.61705,2.587 -0.28851,0.63018 -0.82602,1.52213 -1.19448,1.98211 -0.36846,0.45998 -1.15551,1.18476 -1.749006,1.61063 -0.593495,0.42586 -1.670344,0.97106 -2.39303,1.21155 -0.955435,0.31795 -1.639374,0.41371 -2.506768,0.35097 -0.728263,-0.0527 -1.192849,-0.007 -1.192849,0.11856 0,0.11267 2.045455,2.25738 4.545455,4.76603 2.499998,2.50865 4.545448,4.672274 4.545448,4.808044 0,0.13578 -0.10919,0.24687 -0.24267,0.24687 -0.13347,0 -2.360738,-2.111084 -4.949485,-4.691274 l -4.706829,-4.69128 v 4.69128 c 0,2.99283 -0.07313,4.691274 -0.20202,4.691274 -0.111111,0 -0.270202,3e-5 -0.353535,6e-5 -0.08333,4e-5 -0.19697,-5.795424 -0.252525,-12.878794 l -0.101014,-12.87885 -1.464647,-0.0594 c -0.805556,-0.0326 -1.466467,0.0128 -1.468693,0.10101 -0.0022,0.0882 -0.0077,5.85831 -0.01214,12.82247 -0.0068,10.71838 -0.05237,12.698864 -0.296592,12.901544 z m 6.246147,-10.764064 c 1.699091,-0.0867 2.328384,-0.21167 3.330162,-0.66123 0.763677,-0.34273 1.576909,-0.91967 2.130446,-1.51143 0.49238,-0.52641 1.13416,-1.42856 1.42614,-2.00477 0.292,-0.57622 0.62244,-1.54283 0.73432,-2.14804 0.13844,-0.749 0.1361,-1.46449 -0.007,-2.24061 -0.11594,-0.62714 -0.43247,-1.62444 -0.7034,-2.21623 -0.27092,-0.5918 -0.93068,-1.50264 -1.46612,-2.0241 -0.535429,-0.52146 -1.564419,-1.22585 -2.286641,-1.56531 -1.116788,-0.52492 -1.607657,-0.62922 -3.282828,-0.69755 l -1.969698,-0.0803 v 7.62827 7.62826 l 2.09499,-0.10692 z M -13.303036,95.692 c -0.111111,0.01 -3.611111,-0.0279 -7.777778,-0.0842 l -7.575757,-0.10224 V 82.374236 69.242926 h 2.121212 2.121212 l 0.10101,12.82828 0.10101,12.828284 5.555556,0.0351 c 5.13443,0.0324 5.555556,0.0618 5.555556,0.38721 0,0.19366 -0.09091,0.36025 -0.202021,0.37019 z m -13.139604,-0.73343 1.220412,-0.059 0.05207,-12.411354 c 0.03048,-7.26572 -0.02386,-12.45858 -0.131077,-12.52525 -0.100731,-0.0626 -0.7378,-0.0831 -1.415709,-0.0455 l -1.23256,0.0684 v 12.37262 c 0,6.80495 0.06445,12.43708 0.143225,12.51586 0.07877,0.0788 0.69241,0.116654 1.363636,0.0842 z m 79.074466,0.85004 c -0.09751,0 -0.177285,-0.0962 -0.177285,-0.2137 0,-0.11754 2.886364,-6.019364 6.414142,-13.115154 3.527778,-7.0958 6.50538,-12.90872 6.616891,-12.91761 0.111513,-0.009 3.134241,5.84766 6.717172,13.01455 3.582933,7.1669 6.514422,13.078484 6.514422,13.136864 0,0.0584 -1.295454,0.0809 -2.878788,0.0501 l -2.878788,-0.056 -2.424242,-4.788864 c -1.333333,-2.63387 -2.528241,-4.89241 -2.655352,-5.01898 -0.160161,-0.15949 -1.665604,-0.227 -4.904093,-0.21991 -2.570141,0.006 -4.753236,0.0598 -4.851321,0.12043 -0.09808,0.0606 -1.241265,2.22366 -2.5404,4.80675 -1.299137,2.58309 -2.454992,4.810174 -2.56857,4.949064 -0.113578,0.13888 -0.286283,0.25252 -0.383788,0.25252 z m 22.764823,-0.80808 c 1.035392,0 1.937277,-0.0886 2.004188,-0.196844 0.06691,-0.10826 -2.529194,-5.4719 -5.769119,-11.91919 -3.239926,-6.4473 -5.994958,-11.72235 -6.122293,-11.72235 -0.127336,0 -0.666318,0.90988 -1.197736,2.02196 l -0.966214,2.02196 4.86755,9.63604 c 2.677151,5.29982 4.965097,9.75357 5.084321,9.89723 0.148873,0.179384 0.806414,0.261194 2.099303,0.261194 z M 63.733509,84.776206 c 1.925655,-0.0242 3.533665,-0.0765 3.573358,-0.11622 0.03969,-0.0397 -0.863222,-1.92935 -2.006481,-4.19923 -1.143256,-2.26988 -2.179465,-4.16066 -2.302685,-4.20173 -0.12322,-0.0411 -1.136749,1.749 -2.252285,3.97795 -1.115537,2.22895 -2.028248,4.13892 -2.028248,4.24438 0,0.10546 0.340909,0.22486 0.757576,0.26532 0.416666,0.0405 2.333111,0.0538 4.258765,0.0295 z M 115.28017,95.67451 c -3.84244,0.026 -4.91874,-0.0232 -4.99745,-0.22815 -0.0552,-0.14368 -0.0449,-0.31661 0.0227,-0.3843 0.0677,-0.0677 1.10165,-0.13195 2.29767,-0.1428 l 2.17463,-0.0197 V 82.387746 69.875936 l -2.27273,0.0525 c -2.17594,0.0502 -2.27272,0.0348 -2.27272,-0.36305 0,-0.40958 0.0727,-0.41484 5.10101,-0.36893 4.37884,0.04 5.10101,0.0895 5.10101,0.34961 0,0.24895 -0.4239,0.31319 -2.37528,0.35996 l -2.37527,0.0569 0.052,12.46833 0.052,12.468324 2.07495,0.0305 c 1.14123,0.0168 2.22461,0.088 2.40752,0.15814 0.23295,0.0894 0.26882,0.19136 0.11975,0.34042 -0.13543,0.13545 -1.99307,0.22484 -5.10992,0.24591 z m 72.93195,0.035 c -0.16667,0.004 -3.09916,-0.0187 -6.51661,-0.0507 l -6.2136,-0.0581 0.052,-13.178904 0.052,-13.1789 6.51515,-0.0534 c 6.41386,-0.0526 6.51516,-0.0471 6.51516,0.35354 0,0.39502 -0.12447,0.40698 -4.23619,0.40698 h -4.23618 l -0.0567,5.60606 c -0.0312,3.08334 0.0226,5.7197 0.1195,5.85859 0.13121,0.18799 1.22828,0.25252 4.29293,0.25252 3.5246,0 4.11669,0.0436 4.11669,0.30303 0,0.25973 -0.60542,0.30303 -4.23663,0.30303 h -4.23663 l -0.0563,6.07543 c -0.031,3.34149 0.0198,6.21128 0.11289,6.3773 0.14273,0.254634 0.80654,0.294834 4.24242,0.256924 3.87627,-0.0428 4.07324,-0.0265 4.07324,0.33711 0,0.21013 -0.13637,0.3854 -0.30303,0.38948 z m -10.3116,-0.7512 1.3217,-0.0588 V 82.475266 70.051026 l -1.46465,-0.0594 -1.46465,-0.0594 v 12.39942 c 0,6.81968 0.0643,12.46375 0.14295,12.54238 0.0786,0.0786 0.73772,0.116504 1.46465,0.0842 z m -167.3315,0.64828 c -3.5925943,0 -6.5925942,-0.0606 -6.666667,-0.13468 -0.074075,-0.0741 -0.1346808,-5.926584 -0.1346808,-13.005564 0,-10.12674 0.054447,-12.91608 0.2553697,-13.08283 0.1683677,-0.13973 2.4224808,-0.19978 6.6161621,-0.17625 5.503496,0.0309 6.360791,0.0765 6.360791,0.33872 0,0.25815 -0.636252,0.3111 -4.296019,0.35756 l -4.296023,0.0545 0.053598,5.80405 0.053596,5.80406 4.29293,0.0545 c 3.631062,0.0461 4.292928,0.10062 4.292928,0.35353 0,0.25473 -0.643222,0.29901 -4.343433,0.29901 H 8.4141369 v 6.36364 6.363644 h 4.3434351 c 3.726148,0 4.343433,0.0431 4.343433,0.30303 0,0.26311 -0.860456,0.30303 -6.531985,0.30303 z M 6.1386358,94.95932 7.505046,94.89952 V 82.475276 70.051036 H 6.0909045 4.6767632 l -0.052398,12.22222 c -0.02882,6.72222 -0.00733,12.34004 0.047731,12.48404 0.071644,0.187344 0.4888404,0.244814 1.4665396,0.202024 z M 135.09464,95.59308 c -0.84095,-0.007 -1.91113,-0.13296 -2.37822,-0.27895 -0.46707,-0.146 -1.30863,-0.602684 -1.87012,-1.014864 -0.5615,-0.41217 -1.34227,-1.14158 -1.73503,-1.6209 -0.39277,-0.47933 -0.88558,-1.35932 -1.09514,-1.95555 -0.20955,-0.59623 -0.41028,-1.44583 -0.44606,-1.88802 -0.049,-0.60613 0.009,-0.80397 0.2355,-0.80397 0.20283,0 0.34337,0.29943 0.43226,0.92083 0.0725,0.50646 0.33632,1.39646 0.58641,1.97779 0.30971,0.71994 0.86165,1.42985 1.73103,2.22648 0.7869,0.72106 1.6009,1.26677 2.12276,1.42312 0.46554,0.13948 1.62843,0.25956 2.58418,0.26684 1.47728,0.0112 1.90714,-0.067 2.86752,-0.52171 0.62135,-0.29422 1.51566,-0.9215 1.98735,-1.39394 0.4717,-0.47245 1.08019,-1.29415 1.35217,-1.826 0.30363,-0.59371 0.51129,-1.37356 0.53789,-2.0202 l 0.0434,-1.05321 -7.02299,-5.26251 c -3.86263,-2.89439 -7.16677,-5.40632 -7.34253,-5.58208 -0.27695,-0.27695 -0.28717,-0.4776 -0.0766,-1.50516 0.13363,-0.65208 0.46032,-1.64852 0.72596,-2.21432 0.26563,-0.5658 0.86951,-1.41796 1.34198,-1.89368 0.47244,-0.47573 1.51598,-1.18099 2.31895,-1.56724 1.31598,-0.63303 1.6302,-0.70228 3.1865,-0.70228 1.5517,0 1.87586,0.0709 3.20101,0.70022 0.81095,0.38512 1.80891,1.04458 2.21766,1.46545 0.40875,0.42088 0.97014,1.17132 1.24753,1.66763 0.2774,0.49632 0.64099,1.36246 0.80796,1.92475 0.16699,0.5623 0.30362,1.18767 0.30362,1.38973 0,0.22666 -0.1475,0.36737 -0.38509,0.36737 -0.3121,0 -0.4116,-0.201 -0.52495,-1.0606 -0.077,-0.58334 -0.30701,-1.44557 -0.51127,-1.91608 -0.20427,-0.4705 -0.80895,-1.29257 -1.34372,-1.82682 -0.53479,-0.53424 -1.42689,-1.19332 -1.98245,-1.4646 -0.73359,-0.35823 -1.44004,-0.51386 -2.58076,-0.56854 -1.09649,-0.0526 -1.88176,0.0265 -2.6012,0.2618 -0.5668,0.18539 -1.51634,0.69595 -2.1101,1.13458 -0.59375,0.43863 -1.17321,0.97252 -1.28767,1.18641 -0.11449,0.2139 -0.20814,0.4749 -0.20814,0.58 0,0.1051 3.04545,2.4856 6.76767,5.29001 l 6.76768,5.09893 v 2.72248 c 0,1.87409 -0.0987,3.06191 -0.31667,3.81174 -0.17416,0.59911 -0.60598,1.51964 -0.95959,2.04564 -0.35362,0.52599 -1.1876,1.39371 -1.85328,1.92826 -0.68666,0.55138 -1.64218,1.100144 -2.20838,1.268294 -0.54893,0.16301 -1.68608,0.2903 -2.52703,0.28287 z m 6.83988,-8.727684 c 0.22291,-0.0361 0.27735,-0.36656 0.24073,-1.46083 -0.0414,-1.23671 -0.11556,-1.48051 -0.5911,-1.94313 -0.29907,-0.29094 -3.17919,-2.50922 -6.40026,-4.9295 -3.22109,-2.42029 -5.98862,-4.40952 -6.15008,-4.42051 -0.17428,-0.0119 -0.39456,0.30839 -0.5421,0.78809 -0.13671,0.44445 -0.25554,1.05705 -0.26406,1.36134 -0.0139,0.49608 0.67869,1.07507 6.70164,5.60224 3.69444,2.77694 6.8468,5.02797 7.00523,5.0023 z m 17.3783,8.697124 c -1.17238,0.0313 -2.19511,-0.007 -2.27273,-0.0842 -0.0776,-0.0776 -0.14111,-5.853234 -0.14111,-12.834724 v -12.69359 h -3.43434 c -3.28242,0 -3.43434,-0.0176 -3.43434,-0.39805 0,-0.39019 0.18133,-0.39807 9.19192,-0.39951 9.02303,-10e-4 9.19191,0.006 9.19191,0.39804 0,0.38233 -0.14763,0.39952 -3.43282,0.39952 h -3.43285 l -0.052,12.77777 -0.052,12.777784 z m 0.093,-0.60369 1.23059,-0.0593 V 82.475286 70.051046 h -1.41414 -1.41415 l -0.0521,12.19961 c -0.0387,9.06375 0.008,12.27259 0.18358,12.48355 0.16652,0.200664 0.5966,0.266554 1.46622,0.224634 z M 34.991717,95.20255 c -0.160109,0 -0.349123,-0.0939 -0.42003,-0.2086 -0.07091,-0.114734 -0.205067,-0.455644 -0.298132,-0.757574 -0.09306,-0.30194 -0.825509,-2.13989 -1.627656,-4.08433 -0.802146,-1.94445 -1.7534,-4.26263 -2.113899,-5.15152 -0.360499,-0.88889 -1.443849,-3.57071 -2.407447,-5.95959 -0.963596,-2.38889 -1.93105,-4.73317 -2.149899,-5.20951 -0.218848,-0.47634 -0.627572,-1.47623 -0.908273,-2.22199 -0.280703,-0.74576 -0.596836,-1.44239 -0.702517,-1.54807 -0.105683,-0.10568 -0.192151,-0.36245 -0.192151,-0.5706 0,-0.2456 0.119076,-0.35552 0.339224,-0.31312 0.230475,0.0444 0.813442,1.2311 1.818428,3.70168 0.813562,1.99999 1.794616,4.40908 2.180123,5.35352 0.385505,0.94445 1.32919,3.26263 2.097077,5.15152 l 1.39616,3.43434 2.580784,0.10101 c 1.57267,0.0616 2.684004,0.0221 2.84503,-0.10101 0.145333,-0.11111 0.620596,-1.11111 1.056138,-2.22222 0.435541,-1.11111 1.436848,-3.65656 2.225127,-5.65656 0.788279,-2 1.971527,-5 2.62944,-6.66667 0.769932,-1.95044 1.311376,-3.05358 1.519388,-3.09562 0.185075,-0.0374 0.323182,0.0682 0.323182,0.24712 0,0.17184 -0.181655,0.70123 -0.403675,1.17643 -0.222022,0.47519 -1.002436,2.40944 -1.734254,4.29833 -0.731816,1.88889 -2.086776,5.34344 -3.011019,7.67677 -0.924242,2.33333 -2.371101,5.99177 -3.215242,8.12986 -0.844139,2.13809 -1.5348,4.02446 -1.5348,4.191924 0,0.16747 -0.130998,0.30448 -0.291107,0.30448 z m -0.104041,-2.056834 c 0.115968,-0.0387 0.579885,-0.97805 1.03093,-2.08754 0.451044,-1.10948 0.892618,-2.25805 0.981277,-2.55236 0.100163,-0.33251 0.07697,-0.61934 -0.06126,-0.75758 -0.130148,-0.13014 -1.004725,-0.22246 -2.107588,-0.22246 -1.548101,0 -1.907487,0.0583 -2.010188,0.3259 -0.06878,0.17925 0.175859,1.06561 0.543649,1.9697 0.367789,0.90409 0.836024,2.03773 1.040523,2.51921 0.204497,0.48147 0.466697,0.84378 0.582662,0.80513 z M -4.4235987,74.394466 c -0.1614687,0 -0.2935778,-0.0695 -0.2935778,-0.15451 0,-0.085 0.1867677,-0.50297 0.4150424,-0.92888 0.2282727,-0.42591 0.3857374,-0.92456 0.3499212,-1.10812 -0.042424,-0.21742 -0.2666848,-0.33374 -0.6434505,-0.33374 -0.3950061,0 -0.7104465,-0.17598 -0.9951235,-0.55515 -0.334672,-0.44577 -0.378567,-0.66385 -0.222782,-1.10682 0.106706,-0.30342 0.413156,-0.66092 0.6810004,-0.79446 0.3815415,-0.19022 0.6214081,-0.18809 1.1077576,0.01 0.5999516,0.24412 0.6227273,0.29977 0.6792384,1.65945 0.044911,1.08051 -0.039293,1.62788 -0.3629878,2.35964 -0.2318041,0.52404 -0.5535718,0.95279 -0.7150384,0.95279 z"
       id="path408" /></g></svg>
